{"title":"Gangsters.Americas.Most.Evil.S01E04.The.Mayor.of.Harlem.Alberto.","uid":8816425,"size":629911651,"categoryP":"video","categoryS":"tv_shows","magnet":"?xt=urn:btih:c3d5a70aec9987305dfb8c1e543dac68bb790057&amp;dn=Gangsters.Americas.Most.Evil.S01E04.The.Mayor.of.Harlem.Alberto.&amp;tr=udp%3A%2F%2Ftracker.openbittorrent.com%3A80&amp;tr=udp%3A%2F%2Fopen.demonii.com%3A1337&amp;tr=udp%3A%2F%2Ftracker.coppersurfer.tk%3A6969&amp;tr=udp%3A%2F%2Fexodus.desync.com%3A6969","seeders":4,"leechers":0,"uploader":"odexus","files":1,"time":1376596735,"description":"General\nUnique ID                                : 15911761000268811335552748052456207029 (0xBF87E62FB37BB519E3B68FFF1ACF2B5)\nComplete name                            : \nFormat                                   : Matroska\nFormat version                           : Version 2\nFile size                                : 601 MiB\nDuration                                 : 42mn 46s\nOverall bit rate                         : 1 964 Kbps\nWriting application                      : HandBrake 0.9.8\nWriting library                          : libmkv 0.6.5\n\nVideo\nID                                       : 1\nFormat                                   : AVC\nFormat/Info                              : Advanced Video Codec\nFormat profile                           : &lt;a class=&quot;__cf_email__&quot; href=&quot;/cdn-cgi/l/email-protection&quot; data-cfemail=&quot;82caebe5eac2ceb6acb3&quot;&gt;[email&amp;#160;protected]&lt;/a&gt;&lt;script cf-hash='f9e31' type=&quot;text/javascript&quot;&gt;\n/* &lt;![CDATA[ */!function(){try{var t=&quot;currentScript&quot;in document?document.currentScript:function(){for(var t=document.getElementsByTagName(&quot;script&quot;),e=t.length;e--;)if(t[e].getAttribute(&quot;cf-hash&quot;))return t[e]}();if(t&amp;&amp;t.previousSibling){var e,r,n,i,c=t.previousSibling,a=c.getAttribute(&quot;data-cfemail&quot;);if(a){for(e=&quot;&quot;,r=parseInt(a.substr(0,2),16),n=2;a.length-n;n+=2)i=parseInt(a.substr(n,2),16)^r,e+=String.fromCharCode(i);e=document.createTextNode(e),c.parentNode.replaceChild(e,c)}}}catch(u){}}();/* ]]&gt; */&lt;/script&gt;\nFormat settings, CABAC                   : Yes\nFormat settings, ReFrames                : 14 frames\nCodec ID                                 : V_MPEG4/ISO/AVC\nDuration                                 : 42mn 46s\nBit rate                                 : 1 541 Kbps\nWidth                                    : 1 024 pixels\nHeight                                   : 624 pixels\nDisplay aspect ratio                     : 16:10\nOriginal display aspect ratio            : 1.650\nFrame rate mode                          : Constant\nFrame rate                               : 23.976 fps\nColor space                              : YUV\nChroma subsampling                       : 4:2:0\nBit depth                                : 8 bits\nScan type                                : Progressive\nBits/(Pixel*Frame)                       : 0.101\nStream size                              : 471 MiB (78%)\nWriting library                          : x264 core 120\nEncoding settings                        : cabac=1 // deblock=1:-3:-3 / analyse=0x3:0x133 / me=umh / subme=11 / psy=1 / psy_rd=1.00:0.00 // me_range=32 / chroma_me=1 / trellis=2 / 8x8dct=1 / cqm=0 / deadzone=21,11 / fast_pskip=0 / chroma_qp_offset=-2 / threads=6 / sliced_threads=0 / nr=0 / decimate=0 / interlaced=0 / bluray_compat=0 / constrained_intra=0 / bframes=8 / b_pyramid=2 / b_adapt=2 / b_bias=0 / direct=3 / weightb=1 / open_gop=0 / weightp=2 / keyint=240 / keyint_min=24 / scenecut=40 / intra_refresh=0 / rc_lookahead=240 / rc=crf / mbtree=1 / crf=21.0 / qcomp=0.65 / qpmin=3 / qpmax=69 / qpstep=4 / vbv_maxrate=38000 / vbv_bufsize=30000 / crf_max=0.0 / nal_hrd=none / ip_ratio=1.40 / aq=1:0.90\nLanguage                                 : English\nDefault                                  : Yes\nForced                                   : No\nColor primaries                          : BT.709\nTransfer characteristics                 : BT.709\nMatrix coefficients                      : BT.709\n\nAudio\nID                                       : 2\nFormat                                   : AC-3\nFormat/Info                              : Audio Coding 3\nMode extension                           : CM (complete main)\nFormat settings, Endianness              : Big\nCodec ID                                 : A_AC3\nDuration                                 : 42mn 46s\nBit rate mode                            : Constant\nBit rate                                 : 384 Kbps\nChannel(s)                               : 6 channels\nChannel positions                        : Front: L C R, Side: L R, LFE\nSampling rate                            : 48.0 KHz\nBit depth                                : 16 bits\nCompression mode                         : Lossy\nStream size                              : 117 MiB (20%)\nLanguage                                 : English\nDefault                                  : Yes\nForced                                   : No\n","torrent":{"xt":"urn:btih:c3d5a70aec9987305dfb8c1e543dac68bb790057","amp;dn":"Gangsters.Americas.Most.Evil.S01E04.The.Mayor.of.Harlem.Alberto.","amp;tr":["udp%3A%2F%2Ftracker.openbittorrent.com%3A80","udp%3A%2F%2Fopen.demonii.com%3A1337","udp%3A%2F%2Ftracker.coppersurfer.tk%3A6969","udp%3A%2F%2Fexodus.desync.com%3A6969"],"infoHash":"c3d5a70aec9987305dfb8c1e543dac68bb790057","infoHashBuffer":{"type":"Buffer","data":[195,213,167,10,236,153,135,48,93,251,140,30,84,61,172,104,187,121,0,87]},"announce":[],"urlList":[]}}